# xmcd
# Track frame offsets:
# 150
# 12040
# 24155
# 36360
# 51987
# 67100
# 86627
# 103632
# 118872
# 137180
# 152292
# 166095
#
# Disc length: 2320 seconds
# Revision: 0
# Processed by: cddbd v1.5.2PL0 Copyright (c) Steve Scherf et al.
# Submitted via: VisiTrax 2.11.2.271 - For more info visit www.synapsa.com
#
DISCID=94090e0c
DTITLE=Slim Dusty - Things I See Around Me
DYEAR=1976
DGENRE=Australian Country
TTITLE0=Things I See Around Me
TTITLE1=Blackened Quarts Are Boiling
TTITLE2=Cop The Lot
TTITLE3=Not Much To Show
TTITLE4=Commerical D.T's
TTITLE5=Harry Bowden Derelict
TTITLE6=Smiles
TTITLE7=Three Rivers Hotel
TTITLE8=End Of The Canning Stock Route
TTITLE9=Good Old Days
TTITLE10=Last Of The Bushman
TTITLE11=Old Bull Stag
EXTD=1976, 1996 and 2006 EMI Music Australia
EXTT0=
EXTT1=
EXTT2=
EXTT3=
EXTT4=
EXTT5=
EXTT6=
EXTT7=
EXTT8=
EXTT9=
EXTT10=
EXTT11=
PLAYORDER=
